<svg width="24" height="24" viewBox="0 0 24 24" fill="none" xmlns="http://www.w3.org/2000/svg">
<path d="M5.34783 15.5224C5.34783 15.5224 3 14.818 3 13.9571V11.6092C3 10.0439 5.34783 10.0439 5.34783 10.0439V15.5224Z" fill="#163567" stroke="#163567" stroke-linecap="round" stroke-linejoin="round"/>
<path d="M18.6514 15.5224C18.6514 15.5224 20.9992 14.818 20.9992 13.9571V11.6092C20.9992 10.0439 18.6514 10.0439 18.6514 10.0439V15.5224Z" fill="#163567" stroke="#163567" stroke-linecap="round" stroke-linejoin="round"/>
<path d="M19.4343 15.5225C19.4343 18.653 16.7085 20.1909 13.9561 20.2183" stroke="#163567" stroke-linecap="round" stroke-linejoin="round"/>
<path d="M13.1744 21.0008H10.8266C10.619 21.0008 10.4199 20.9184 10.2732 20.7716C10.1264 20.6248 10.0439 20.4258 10.0439 20.2182C10.0439 20.0106 10.1264 19.8116 10.2732 19.6648C10.4199 19.518 10.619 19.4355 10.8266 19.4355H13.1744C13.3819 19.4355 13.581 19.518 13.7278 19.6648C13.8745 19.8116 13.957 20.0106 13.957 20.2182C13.957 20.4258 13.8745 20.6248 13.7278 20.7716C13.581 20.9184 13.3819 21.0008 13.1744 21.0008Z" fill="#163567" stroke="#163567" stroke-linecap="round" stroke-linejoin="round"/>
<path d="M18.653 10.0437V9.65241C18.653 7.88808 17.9522 6.19599 16.7046 4.94842C15.4571 3.70085 13.7651 3 12.0008 3C10.2365 3 8.54453 3.70085 7.29701 4.94842C6.04949 6.19599 5.34863 7.88808 5.34863 9.65241V10.0437" stroke="#163567" stroke-linecap="round" stroke-linejoin="round"/>
</svg>
