<svg width="31" height="31" viewBox="0 0 31 31" fill="none" xmlns="http://www.w3.org/2000/svg">
<g clip-path="url(#clip0)">
<path d="M22.5433 30.9998C22.3263 30.9998 22.1042 30.9726 21.8846 30.9145L1.91154 25.5657C0.542377 25.1886 -0.273956 23.7703 0.0851272 22.4011L2.60517 13.0082C2.69817 12.6633 3.05209 12.4631 3.39567 12.5509C3.74054 12.6426 3.94463 12.9978 3.85292 13.3414L1.33417 22.7318C1.15463 23.4164 1.56538 24.1294 2.25125 24.3193L22.2165 29.6655C22.9024 29.8463 23.6103 29.4381 23.7885 28.7561L24.7973 25.0181C24.8903 24.6732 25.2442 24.4678 25.5891 24.5621C25.934 24.6551 26.1368 25.0103 26.045 25.3539L25.0375 29.0868C24.734 30.2364 23.6878 30.9998 22.5433 30.9998Z" fill="white"/>
<path d="M28.417 23.2502H7.75033C6.32562 23.2502 5.16699 22.0915 5.16699 20.6668V5.16683C5.16699 3.74212 6.32562 2.5835 7.75033 2.5835H28.417C29.8417 2.5835 31.0003 3.74212 31.0003 5.16683V20.6668C31.0003 22.0915 29.8417 23.2502 28.417 23.2502ZM7.75033 3.87516C7.03862 3.87516 6.45866 4.45512 6.45866 5.16683V20.6668C6.45866 21.3785 7.03862 21.9585 7.75033 21.9585H28.417C29.1287 21.9585 29.7087 21.3785 29.7087 20.6668V5.16683C29.7087 4.45512 29.1287 3.87516 28.417 3.87516H7.75033Z" fill="white"/>
<path d="M11.6253 11.6252C10.2006 11.6252 9.04199 10.4665 9.04199 9.04183C9.04199 7.61712 10.2006 6.4585 11.6253 6.4585C13.05 6.4585 14.2087 7.61712 14.2087 9.04183C14.2087 10.4665 13.05 11.6252 11.6253 11.6252ZM11.6253 7.75016C10.9136 7.75016 10.3337 8.33012 10.3337 9.04183C10.3337 9.75354 10.9136 10.3335 11.6253 10.3335C12.337 10.3335 12.917 9.75354 12.917 9.04183C12.917 8.33012 12.337 7.75016 11.6253 7.75016Z" fill="white"/>
<path d="M5.90299 21.8678C5.73766 21.8678 5.57233 21.8045 5.44574 21.6792C5.19387 21.4273 5.19387 21.0179 5.44574 20.766L11.5463 14.6655C12.2774 13.9344 13.5548 13.9344 14.2859 14.6655L16.102 16.4815L21.1292 10.4495C21.4947 10.0116 22.032 9.75712 22.6042 9.75195H22.6184C23.1842 9.75195 23.7202 9.99737 24.0896 10.4275L30.8451 18.3092C31.0776 18.5792 31.0466 18.9874 30.7753 19.2199C30.5054 19.4524 30.0985 19.4227 29.8647 19.1501L23.1093 11.2684C22.984 11.1237 22.8109 11.0436 22.6184 11.0436C22.4841 11.032 22.2477 11.125 22.1224 11.2761L16.6419 17.852C16.5257 17.9915 16.3564 18.0754 16.1743 18.0832C15.9909 18.0961 15.8165 18.0238 15.6887 17.8946L13.3727 15.5787C13.1286 15.3358 12.7036 15.3358 12.4595 15.5787L6.35895 21.6792C6.23366 21.8045 6.06833 21.8678 5.90299 21.8678Z" fill="white"/>
</g>
<defs>
<clipPath id="clip0">
<rect width="31" height="31" fill="white"/>
</clipPath>
</defs>
</svg>
